<svg viewBox="0 0 24 24" version="1.1" xmlns="http://www.w3.org/2000/svg">
  <g id="Artboard" stroke="none" stroke-width="1" fill="none" fill-rule="evenodd">
    <g id="-negative-core-grey" fill="#F5F5F5" fill-rule="nonzero">
      <path d="M12,24 C5.372583,24 0,18.627417 0,12 C0,5.372583 5.372583,0 12,0 C18.627417,0 24,5.372583 24,12 C24,18.627417 18.627417,24 12,24 Z M9.5526123,6.16946411 L7.69958496,6.16946411 L7.69958496,14.5291443 C7.69958496,15.2801856 7.99087234,15.8276655 8.57345582,16.1716004 C9.15603928,16.5155352 9.86495554,16.6875 10.7002258,16.6875 L13.9535522,16.6875 C15.8346652,16.6875 16.7752075,15.9820932 16.7752075,14.5712585 L16.7752075,10.8757324 C16.7752075,10.2510345 16.5242792,9.74742317 16.0224152,9.36488342 C15.5205511,8.98234367 14.837956,8.79107666 13.9746094,8.79107666 L9.5526123,8.79107666 L9.5526123,6.16946411 Z M14.9221802,14.244873 C14.9221802,14.6309223 14.827424,14.8871148 14.6379089,15.0134582 C14.3852221,15.2240306 13.9781217,15.3293152 13.4165955,15.3293152 L11.1740112,15.3293152 C10.0930732,15.3293152 9.5526123,14.9924045 9.5526123,14.318573 L9.5526123,10.4651184 C9.5526123,10.2405079 9.70352021,10.1282043 10.0053406,10.1282043 L13.4165955,10.1282043 C14.4203236,10.1282043 14.9221802,10.4967004 14.9221802,11.2337036 L14.9221802,14.244873 Z" id="Combined-Shape"></path>
    </g>
  </g>
</svg>
